{"accessors":[{"bufferView":0,"componentType":5123,"count":2430,"max":[824],"min":[0],"type":"SCALAR"},{"bufferView":1,"componentType":5126,"count":825,"max":[8.168424606323242,7.846583843231201,11.792848587036133],"min":[-8.174354553222656,-7.846549034118652,-12.432598114013672],"type":"VEC3"},{"bufferView":2,"componentType":5126,"count":825,"max":[0.9995065331459045,0.9984303712844849,0.9963979721069336],"min":[-0.9995194673538208,-0.9997027516365051,-0.9999922513961792],"type":"VEC3"},{"bufferView":3,"componentType":5126,"count":825,"max":[0.46506059169769287,1.0],"min":[0.0,0.0],"type":"VEC2"},{"bufferView":4,"componentType":5126,"count":825,"max":[1.0,1.0,1.0,1.0],"min":[0.0,0.0,0.0,1.0],"type":"VEC4"},{"bufferView":5,"componentType":5123,"count":10230,"max":[1945],"min":[0],"type":"SCALAR"},{"bufferView":6,"componentType":5126,"count":1946,"max":[5.295230865478516,2.1263885498046875,1.902470588684082],"min":[-5.295230865478516,-6.39794921875,-2.00057315826416],"type":"VEC3"},{"bufferView":7,"componentType":5126,"count":1946,"max":[1.0,0.9999978542327881,1.0],"min":[-1.0,-0.9999978542327881,-1.0],"type":"VEC3"},{"bufferView":8,"componentType":5126,"count":1946,"max":[0.9788094162940979,0.7425701022148132],"min":[0.18295618891716003,0.39211469888687134],"type":"VEC2"},{"bufferView":9,"componentType":5123,"count":10230,"max":[1945],"min":[0],"type":"SCALAR"},{"bufferView":10,"componentType":5126,"count":1946,"max":[5.29522705078125,2.1263885498046875,1.9024672508239746],"min":[-5.295234680175781,-6.39788818359375,-2.0005836486816406],"type":"VEC3"},{"bufferView":11,"componentType":5126,"count":1946,"max":[1.0,0.9999978542327881,1.0],"min":[-1.0,-0.9999978542327881,-1.0],"type":"VEC3"},{"bufferView":12,"componentType":5126,"count":1946,"max":[0.9788094162940979,0.39993274211883545],"min":[0.18295618891716003,0.04924088716506958],"type":"VEC2"}],"asset":{"generator":"Verge3D for Blender v4.11.0","version":"2.0"},"bufferViews":[{"buffer":0,"byteLength":4860,"byteOffset":0,"target":34963},{"buffer":0,"byteLength":9900,"byteOffset":4860,"target":34962},{"buffer":0,"byteLength":9900,"byteOffset":14760,"target":34962},{"buffer":0,"byteLength":6600,"byteOffset":24660,"target":34962},{"buffer":0,"byteLength":13200,"byteOffset":31260,"target":34962},{"buffer":0,"byteLength":20460,"byteOffset":44460,"target":34963},{"buffer":0,"byteLength":23352,"byteOffset":64920,"target":34962},{"buffer":0,"byteLength":23352,"byteOffset":88272,"target":34962},{"buffer":0,"byteLength":15568,"byteOffset":111624,"target":34962},{"buffer":0,"byteLength":20460,"byteOffset":127192,"target":34963},{"buffer":0,"byteLength":23352,"byteOffset":147652,"target":34962},{"buffer":0,"byteLength":23352,"byteOffset":171004,"target":34962},{"buffer":0,"byteLength":15568,"byteOffset":194356,"target":34962}],"buffers":[{"byteLength":209924,"uri":"Mascara.bin"}],"cameras":[{"extensions":{"S8S_v3d_camera":{"controls":"ORBIT","enablePan":true,"moveSpeed":1.0,"orbitMaxDistance":100.0,"orbitMaxPolarAngle":3.1415927410125732,"orbitMaxZoom":100.0,"orbitMinDistance":0.0,"orbitMinPolarAngle":0.0,"orbitMinZoom":0.009999999776482582,"orbitTarget":[0.0,0.0,-0.0],"rotateSpeed":1.0,"viewportFitInitialAspect":1.7777777777777777,"viewportFitType":"AUTO"}},"name":"Camera","perspective":{"aspectRatio":1.7777777777777777,"yfov":0.39959652046304894,"zfar":100.0,"znear":0.10000000149011612},"type":"perspective"}],"extensions":{"S8S_v3d_lights":{"lights":[{"color":[1.0,1.0,1.0],"decay":2,"distance":31.622776955095866,"intensity":1000.0,"name":"Light","power":1000.0,"profile":"blender","shadow":{"bias":-0.0018,"cameraFar":31.622776955095866,"cameraFov":0,"cameraNear":0.05000000074505806,"enabled":true,"expBias":2.5,"mapSize":512,"radius":1.0,"slopeScaledBias":2.5},"type":"point"}]}},"extensionsUsed":["S8S_v3d_texture","S8S_v3d_materials","S8S_v3d_camera","S8S_v3d_lights","S8S_v3d_mesh","S8S_v3d_node","S8S_v3d_scene"],"images":[{"uri":"mascara_mascara_BaseColor.png"},{"uri":"mascara_mascara_Roughness.png"}],"materials":[{"alphaMode":"OPAQUE","extensions":{"S8S_v3d_materials":{"gtaoVisible":true,"materialIndex":0,"nodeGraph":{"edges":[{"fromNode":2,"fromOutput":0,"toInput":0,"toNode":0},{"fromNode":3,"fromOutput":0,"toInput":2,"toNode":0},{"fromNode":0,"fromOutput":0,"toInput":0,"toNode":1}],"nodes":[{"inputs":[[0.0,0.0,0.0,1.0],0.0,1.0,1.5,1.0,[0.0,0.0,0.0],0.0,0.0,[1.0,0.20000000298023224,0.10000000149011612],1.0,1.399999976158142,0.0,1.0,[1.0,1.0,1.0,1.0],0.0,0.0,[0.0,0.0,0.0],0.0,0.0,0.10000000149011612,1.5,[1.0,1.0,1.0,1.0],[0.0,0.0,0.0],0.0,0.30000001192092896,[1.0,1.0,1.0,1.0],[1.0,1.0,1.0,1.0],0.0,0.0,1.5],"is_active_output":false,"name":"Principled BSDF","outputs":[[0,0,0,0]],"type":"BSDF_PRINCIPLED_BL"},{"inputs":[[0,0,0,0],[0,0,0,0],[0.0,0.0,0.0],0.0],"is_active_output":true,"name":"Material Output","outputs":[],"type":"OUTPUT_MATERIAL_BL"},{"alphaMode":"STRAIGHT","inputs":[[0.0,0.0,0.0]],"is_active_output":false,"name":"Image Texture","outputs":[[0.800000011920929,0.800000011920929,0.800000011920929,1.0],0.0],"projection":"FLAT","projectionBlend":0.0,"texture":0,"type":"TEX_IMAGE_BL"},{"alphaMode":"CHANNEL_PACKED","inputs":[[0.0,0.0,0.0]],"is_active_output":false,"name":"Image Texture.001","outputs":[[0.800000011920929,0.800000011920929,0.800000011920929,1.0],0.0],"projection":"FLAT","projectionBlend":0.0,"texture":1,"type":"TEX_IMAGE_BL"}]}}},"name":"mascara"},{"alphaMode":"OPAQUE","extensions":{"S8S_v3d_materials":{"gtaoVisible":true,"materialIndex":0,"nodeGraph":{"edges":[{"fromNode":1,"fromOutput":0,"toInput":0,"toNode":0}],"nodes":[{"inputs":[[0,0,0,0],[0,0,0,0]],"is_active_output":true,"name":"World Output","outputs":[],"type":"OUTPUT_WORLD_BL"},{"inputs":[[0.05087608844041824,0.05087608844041824,0.05087608844041824,1.0],1.0],"is_active_output":false,"name":"Background","outputs":[[0,0,0,0]],"type":"BACKGROUND_BL"}]}}},"name":"Verge3D_Environment_World"}],"meshes":[{"extensions":{"S8S_v3d_mesh":{"colorLayers":{"colorSet0":"COLOR_0"},"uvLayers":{"UVChannel_1":"TEXCOORD_0"}}},"name":"Mesh.006","primitives":[{"attributes":{"COLOR_0":4,"NORMAL":2,"POSITION":1,"TEXCOORD_0":3},"indices":0,"material":0,"mode":4}]},{"extensions":{"S8S_v3d_mesh":{"colorLayers":{},"uvLayers":{"UVChannel_1":"TEXCOORD_0"}}},"name":"Mesh.009","primitives":[{"attributes":{"NORMAL":7,"POSITION":6,"TEXCOORD_0":8},"indices":5,"material":0,"mode":4}]},{"extensions":{"S8S_v3d_mesh":{"colorLayers":{},"uvLayers":{"UVChannel_1":"TEXCOORD_0"}}},"name":"Mesh.010","primitives":[{"attributes":{"NORMAL":11,"POSITION":10,"TEXCOORD_0":12},"indices":9,"material":0,"mode":4}]}],"nodes":[{"extensions":{"S8S_v3d_node":{"frustumCulling":true,"groupNames":["Collection"],"hidden":false,"hidpiCompositing":false,"objectColor":[1.0,1.0,1.0,1.0],"objectIndex":0,"renderOrder":0,"useCastShadows":true,"useShadows":true}},"mesh":1,"name":"Box001","rotation":[0.17314830422401428,0.48348942399024963,0.15810143947601318,0.8433632254600525],"scale":[0.009999999776482582,0.009999999776482582,0.009999999776482582],"translation":[0.05718265846371651,1.5348401069641113,0.13880246877670288]},{"children":[4],"extensions":{"S8S_v3d_node":{"frustumCulling":true,"groupNames":["Collection"],"hidden":false,"hidpiCompositing":false,"objectColor":[1.0,1.0,1.0,1.0],"objectIndex":0,"renderOrder":0,"useCastShadows":true}},"name":"RopaBambasHombre001","rotation":[0.0,0.7071064710617065,-1.1102228922762585e-16,0.7071070075035095],"scale":[0.046916209161281586,0.046916209161281586,0.046916209161281586],"translation":[0.0016418456798419356,0.8602997660636902,0.042591553181409836]},{"extensions":{"S8S_v3d_lights":{"light":0},"S8S_v3d_node":{"frustumCulling":true,"groupNames":["Collection"],"hidden":false,"hidpiCompositing":false,"objectColor":[0.0,0.0,0.0,0.0],"objectIndex":0,"renderOrder":0,"useCastShadows":true}},"name":"Light","rotation":[-0.28416627645492554,0.7269423007965088,0.34203392267227173,0.5232754945755005],"scale":[1.0,0.9999998807907104,0.9999998807907104],"translation":[4.076245307922363,5.903861999511719,-1.0054539442062378]},{"extensions":{"S8S_v3d_node":{"frustumCulling":true,"groupNames":["Collection"],"hidden":false,"hidpiCompositing":false,"objectColor":[1.0,1.0,1.0,1.0],"objectIndex":0,"renderOrder":0,"useCastShadows":true,"useShadows":true}},"mesh":0,"name":"11_MascaraSiliconada","scale":[0.009999999776482582,0.009999999776482582,0.009999999776482582],"translation":[1.7477147506994584e-10,1.5479415655136108,0.05076858401298523]},{"extensions":{"S8S_v3d_node":{"frustumCulling":true,"groupNames":["Collection"],"hidden":false,"hidpiCompositing":false,"objectColor":[1.0,1.0,1.0,1.0],"objectIndex":0,"renderOrder":0,"useCastShadows":true}},"name":"transform1"},{"extensions":{"S8S_v3d_node":{"frustumCulling":true,"groupNames":["Collection"],"hidden":false,"hidpiCompositing":false,"objectColor":[1.0,1.0,1.0,1.0],"objectIndex":0,"renderOrder":0,"useCastShadows":true,"useShadows":true}},"mesh":2,"name":"Box002","rotation":[-0.8433632254600525,0.15810143947601318,-0.48348939418792725,0.17314836382865906],"scale":[-0.009999999776482582,-0.009999999776482582,-0.009999999776482582],"translation":[-0.058163415640592575,1.5348401069641113,0.13880246877670288]},{"extensions":{"S8S_v3d_node":{"frustumCulling":true,"groupNames":["Collection"],"hidden":false,"hidpiCompositing":false,"objectColor":[1.0,1.0,1.0,1.0],"objectIndex":0,"renderOrder":0,"useCastShadows":true}},"name":"home","translation":[1.7477147506994584e-10,1.5479415655136108,0.05076858401298523]},{"camera":0,"extensions":{"S8S_v3d_node":{"frustumCulling":true,"groupNames":["Collection"],"hidden":false,"hidpiCompositing":false,"objectColor":[0.0,0.0,0.0,0.0],"objectIndex":0,"renderOrder":0,"useCastShadows":true}},"name":"Camera","rotation":[-0.20997299253940582,0.3857799470424652,0.09062844514846802,0.8937962055206299],"scale":[1.0,0.9999998807907104,0.9999998807907104],"translation":[7.358891487121582,4.958309173583984,6.925790786743164]},{"extensions":{"S8S_v3d_node":{"frustumCulling":true,"groupNames":["Collection"],"hidden":false,"hidpiCompositing":false,"objectColor":[1.0,1.0,1.0,1.0],"objectIndex":0,"renderOrder":0,"useCastShadows":true}},"name":"homeCAM","translation":[1.7477147506994584e-10,1.5479415655136108,0.7269375920295715]}],"samplers":[{}],"scene":0,"scenes":[{"extensions":{"S8S_v3d_scene":{"aaMethod":"AUTO","iblEnvironmentMode":"PMREM","physicallyCorrectLights":true,"pmremMaxTileSize":512,"shadowMap":{"esmDistanceScale":1.0,"renderReverseSided":false,"renderSingleSided":true,"type":"PCFPOISSON"},"toneMapping":{"exposure":1.0,"look":"NONE","type":"agxBlender"},"worldMaterial":1}},"extras":{"animFrameRate":30,"coordSystem":"Z_UP_RIGHT"},"name":"Scene","nodes":[2,7,0,3,5,1,6,8]}],"textures":[{"extensions":{"S8S_v3d_texture":{"colorSpace":"srgb"}},"name":"mascara_mascara_BaseColor.png","sampler":0,"source":0},{"extensions":{"S8S_v3d_texture":{"colorSpace":"non-color"}},"name":"mascara_mascara_Roughness.png","sampler":0,"source":1}]}
